<svg width="35" height="35" viewBox="0 0 35 35" fill="none" xmlns="http://www.w3.org/2000/svg">
<path d="M26.5234 23.9531V11.0797C26.5234 10.85 26.3047 10.7078 26.1406 10.8336L17.6148 17.2648C17.5789 17.2961 17.5501 17.3348 17.5303 17.3782C17.5106 17.4216 17.5003 17.4687 17.5003 17.5164C17.5003 17.5641 17.5106 17.6112 17.5303 17.6546C17.5501 17.698 17.5789 17.7366 17.6148 17.7679L26.1406 24.2047C26.3047 24.3304 26.5234 24.1883 26.5234 23.9531Z" stroke="white" stroke-width="1.2"/>
<path d="M17.5 23.9204V11.0469C17.5 10.8118 17.2812 10.6696 17.1172 10.7954L8.5914 17.2321C8.55545 17.2634 8.52663 17.3021 8.50688 17.3455C8.48712 17.3889 8.4769 17.436 8.4769 17.4837C8.4769 17.5313 8.48712 17.5785 8.50688 17.6219C8.52663 17.6653 8.55545 17.7039 8.5914 17.7352L17.1172 24.1665C17.2812 24.2923 17.5 24.1501 17.5 23.9204Z" stroke="white" stroke-width="1.2"/>
<path d="M8.47656 10.7461V24.2156" stroke="white" stroke-width="1.2" stroke-linecap="round"/>
</svg>
