<svg width="35" height="35" viewBox="0 0 35 35" fill="none" xmlns="http://www.w3.org/2000/svg">
<path d="M8.47656 23.9531V11.0797C8.47656 10.85 8.69531 10.7078 8.85938 10.8336L17.3852 17.2648C17.4211 17.2961 17.4499 17.3348 17.4697 17.3782C17.4894 17.4216 17.4997 17.4687 17.4997 17.5164C17.4997 17.5641 17.4894 17.6112 17.4697 17.6546C17.4499 17.698 17.4211 17.7366 17.3852 17.7679L8.85938 24.2047C8.69531 24.3304 8.47656 24.1883 8.47656 23.9531Z" stroke="white" stroke-width="1.2"/>
<path d="M17.5 23.9204V11.0469C17.5 10.8118 17.7188 10.6696 17.8828 10.7954L26.4086 17.2321C26.4445 17.2634 26.4734 17.3021 26.4931 17.3455C26.5129 17.3889 26.5231 17.436 26.5231 17.4837C26.5231 17.5313 26.5129 17.5785 26.4931 17.6219C26.4734 17.6653 26.4445 17.7039 26.4086 17.7352L17.8828 24.1665C17.7188 24.2923 17.5 24.1501 17.5 23.9204Z" stroke="white" stroke-width="1.2"/>
<path d="M26.5234 10.7461V24.2156" stroke="white" stroke-width="1.2" stroke-linecap="round"/>
</svg>
