<svg id="Layer_2" data-name="Layer 2" xmlns="http://www.w3.org/2000/svg" viewBox="0 0 512.23 310.55"><defs><style>.cls-1{fill:#fff;}.cls-2{fill:#e21b5e;}</style></defs><path class="cls-1" d="M190.85,195.52c-1.27,15.38,12.33,46.69,13.57,53.42,3.2,17.36-5.17,32.89-10.19,48.58-7.3,22.86-17.72,44.65-24.6,67.61-3.16,10.56-7.49,24.54,5.55,32.83,12.64,8,22.69-1.1,31.15-8.67,29.54-26.42,35-65.75,47.78-101.09,1.88-5.18,4.19-10.6,4.37-16,1.14-34.33,21-38,49.23-31.24-12.43,37.47-25.4,73-35.76,109.41-4.54,15.95-13.86,37.91,4.88,48.42,20.63,11.57,34.64-7.29,46.18-22.85,13.15-17.71,22.47-37.68,29.59-59,5.42-16.25,7.36-30.07-6.75-42.83-10.06-9.1-10.65-21.2-4.19-33,5.45-10,15.07-9.13,23.88-7.26,13.74,2.91,14.15,15.61,15.08,26.46,4.13,48.28-42.15,135.19-83.53,157.85C265.18,435.62,239.68,425.31,231,391c-12,3.18-18.73,12.18-27.16,21.62-14.83,16.61-66.24,76.81-85.64,64-21.1-14,9.67-94.28,16.16-115.59,7-23,15.82-45.39,23-68.34" transform="translate(-110.86 -167.79)"/><path class="cls-1" d="M611.06,242.65c-22,65-36.83,127.84-63,186.79-11.48,25.86-27.71,48.88-61.25,48.8-12.54,0-24.21-1.22-27.76-15.86-2-8.1.86-16,8.69-19.2,13.76-5.7,22.29,1.89,28.44,13.58.71,1.35,2.51,2.12,4.51,3.72,8.29-4,9.08-12.76,11.44-20q22.57-69.53,44.37-139.3c3.69-11.81,10.68-25.92-11.38-27.41-4.09-.28-6.08-2.52-5.72-6.36.58-6.17,5-7.52,10.41-8.82C568.54,254.07,587.13,248.94,611.06,242.65Z" transform="translate(-110.86 -167.79)"/><path class="cls-1" d="M459.24,284.71c9.8-12,17.92-23.71,27.92-33.54,9-8.85,20.79-11.6,32.07-3.38,8,5.87,8.12,15.66,4.43,23-5.41,10.83-15.62,14.49-27.56,9.8-13.83-5.42-20.21,4.33-26.47,13.26C451.57,319.63,437.56,348,433,378.78c-4.64,30.94-19.46,39.09-48.06,30.37,11.23-33.32,23.05-67.17,34-101.29,7.71-24,5.65-25.84-24.48-19.65,11.34-19.89,27.43-30.07,41.12-41.94,6.44-5.57,10.1,2.89,13.56,6.86C456.6,261.74,457,273.16,459.24,284.71Z" transform="translate(-110.86 -167.79)"/><path class="cls-2" d="M623.09,187.83c-.34,14.8-8,23.45-21.23,23.71-12.7.25-22.46-6.15-22.16-21,.26-13.43,6.16-22.13,20.67-22.68S621.37,175.43,623.09,187.83Z" transform="translate(-110.86 -167.79)"/></svg>